<svg width="24" height="34" viewBox="0 0 24 34" fill="none" xmlns="http://www.w3.org/2000/svg">
<path d="M12.001 18.863C15.31 18.863 18.001 16.0525 18.001 12.599C18.001 9.14541 15.31 6.33496 12.001 6.33496C8.69204 6.33496 6.00104 9.14437 6.00104 12.599C6.00104 16.0536 8.69204 18.863 12.001 18.863ZM12.001 7.37896C14.759 7.37896 17.001 9.71961 17.001 12.599C17.001 15.4783 14.759 17.819 12.001 17.819C9.24304 17.819 7.00104 15.4783 7.00104 12.599C7.00104 9.71961 9.24304 7.37896 12.001 7.37896Z" fill="white"/>
<path d="M11.999 0.335938C5.38102 0.335938 -0.000976562 5.88584 -0.000976562 12.865C-0.000976562 20.173 6.00002 27.6491 10.375 32.9035C10.391 32.9244 11.093 33.7439 11.961 33.7439C11.963 33.7439 12.034 33.7439 12.038 33.7439C12.905 33.7439 13.608 32.9244 13.624 32.9035C18.001 27.6491 24.001 20.174 24.001 12.865C24.001 5.88584 18.618 0.335938 11.999 0.335938ZM12.116 31.5338C12.095 31.5547 12.034 31.6006 11.981 31.6361C11.971 31.6079 11.897 31.5463 11.852 31.4972C8.18702 27.0947 1.99902 19.6646 1.99902 12.865C1.99902 7.10837 6.48602 2.42394 11.999 2.42394C17.515 2.42394 22.001 7.10837 22.001 12.866C22.001 19.6646 15.813 27.0947 12.116 31.5338Z" fill="white"/>
</svg>
