<svg width="32" height="23" viewBox="0 0 32 23" fill="none" xmlns="http://www.w3.org/2000/svg">
<path d="M28 0.586426H4C1.791 0.586426 0 2.45727 0 4.76243V18.3344C0 20.6406 1.791 22.5104 4 22.5104H28C30.209 22.5104 32 20.6406 32 18.3344V4.76243C32 2.45727 30.209 0.586426 28 0.586426ZM2 6.06743L8.999 11.5484L2 17.0294V6.06743ZM30 18.3344C30 19.487 29.102 20.4224 28 20.4224H4C2.897 20.4224 2 19.487 2 18.3344L9.832 12.2009L14.2 15.6221C14.733 16.0376 15.366 16.2485 16 16.2485C16.633 16.2485 17.266 16.0387 17.799 15.6221L22.168 12.2009L30 18.3344ZM30 17.0294L23 11.5484L30 6.06743V17.0294ZM17.199 14.7869C16.85 15.0604 16.436 15.2045 16 15.2045C15.564 15.2045 15.149 15.0594 14.8 14.7869L10.665 11.5484L9.832 10.8959L2 4.76347V4.76243C2 3.61089 2.897 2.67443 4 2.67443H28C29.102 2.67443 30 3.61089 30 4.76243L17.199 14.7869Z" fill="white"/>
</svg>
