<svg width="22" height="35" viewBox="0 0 22 35" fill="none" xmlns="http://www.w3.org/2000/svg">
<path d="M10 30.5779C10 30.2888 10.224 30.056 10.5 30.056H11.5C11.775 30.056 12 30.2888 12 30.5779C12 30.865 11.775 31.1 11.5 31.1H10.5C10.224 31.1 10 30.865 10 30.5779ZM12.5 3.96012H9.5C9.223 3.96012 9 4.19294 9 4.48213C9 4.77027 9.223 5.00413 9.5 5.00413H12.5C12.775 5.00413 13 4.77027 13 4.48213C13 4.19294 12.775 3.96012 12.5 3.96012ZM22 3.96012V31.1041C22 32.833 20.656 34.2361 19 34.2361H3C1.343 34.2361 0 32.8351 0 31.1041V3.96012C0 2.23022 1.342 0.828125 3 0.828125H19C20.656 0.828125 22 2.22917 22 3.96012ZM20 29.0119H2V31.1041C2 31.6815 2.448 32.1481 3 32.1481H19C19.551 32.1481 20 31.6794 20 31.1041V29.0119ZM20 7.09212H2V27.968H20V7.09212ZM20 3.96012C20 3.38384 19.551 2.91613 19 2.91613H3C2.448 2.91613 2 3.38384 2 3.96012V6.04813H20V3.96012Z" fill="white"/>
</svg>
