<svg width="32" height="35" viewBox="0 0 32 35" fill="none" xmlns="http://www.w3.org/2000/svg">
<g clip-path="url(#clip0)">
<path d="M32 26.8146C32 30.958 28.7812 34.3118 24.8188 34.3118H7.18125C3.21875 34.3118 0 30.9514 0 26.8146V8.40103C0 4.26418 3.21875 0.903809 7.18125 0.903809H24.8188C28.7812 0.903809 32 4.26418 32 8.40103V26.8146Z" fill="#54205E"/>
<path fill-rule="evenodd" clip-rule="evenodd" d="M20.3938 26.0579C19.7875 26.0775 19.2125 25.9339 18.6313 25.7643C14.7375 24.6028 11.825 22.0711 9.47504 18.7173C8.58754 17.458 7.76879 16.153 7.49379 14.5804C7.16879 12.7078 7.68754 11.1092 9.02504 9.8172C9.45004 9.3996 10.7563 9.22343 11.275 9.49095C11.4688 9.58883 11.5938 9.765 11.6688 9.96075C12.1625 11.1744 12.6438 12.3815 13.125 13.6017C13.2188 13.8301 13.175 14.065 13.075 14.2999C12.8313 14.861 12.4313 15.3112 12.0313 15.7549C11.725 16.0877 11.7125 16.3879 11.9375 16.7728C13.3125 19.1545 15.2125 20.8966 17.6938 21.9341C18.0625 22.0907 18.3438 22.0385 18.5938 21.7123C19.0063 21.1707 19.45 20.6487 19.8375 20.0875C20.1063 19.7026 20.4125 19.6438 20.7875 19.82C21.6125 20.218 22.4313 20.6226 23.25 21.0271C23.4375 21.1185 23.6188 21.2164 23.8 21.3012C24.6375 21.7318 24.625 21.7384 24.55 22.6975C24.4125 24.5767 23.0625 25.4968 21.4688 25.96C21.1313 26.0644 20.7625 26.071 20.3938 26.0579Z" fill="white"/>
<path fill-rule="evenodd" clip-rule="evenodd" d="M21.9438 11.5787C22.6001 12.1856 23.0626 12.949 23.4376 13.7711C23.7376 14.4236 23.9251 15.1153 24.0438 15.8265C24.0688 15.9701 24.1313 16.1332 23.9938 16.2572C23.6188 16.2833 23.2501 16.2963 22.8751 16.342C22.7313 16.3616 22.6876 16.3159 22.6688 16.1658C22.5001 14.8217 21.9751 13.6472 21.0876 12.6684C19.8001 11.2394 18.2063 10.5413 16.3188 10.6C16.2688 10.6 16.2251 10.6 16.0751 10.6065C16.0626 10.1628 16.0563 9.72564 16.0438 9.28194C16.1251 9.13187 16.2751 9.15797 16.4001 9.15797C17.1751 9.13839 17.9438 9.24932 18.6876 9.48422C19.2938 9.67344 19.8751 9.92792 20.4188 10.2803C20.5813 10.3912 20.7438 10.5086 20.8876 10.6457C21.0126 10.7501 21.2563 10.9719 21.3813 11.0763C21.5251 11.2003 21.8063 11.4482 21.9438 11.5787Z" fill="white"/>
<path fill-rule="evenodd" clip-rule="evenodd" d="M20.1251 12.6815C21.1501 13.608 21.7876 14.7825 22.0001 16.205C22.0251 16.3746 21.9876 16.4333 21.8188 16.4399C21.4876 16.4529 21.1563 16.4855 20.8251 16.5247C20.7251 16.5377 20.6876 16.5182 20.6688 16.3942C20.4938 15.161 19.9063 14.1822 18.9313 13.471C18.2126 12.9425 17.4001 12.6815 16.5126 12.7141C16.3688 12.7206 16.3251 12.688 16.3188 12.5314C16.3001 12.179 16.2688 11.8267 16.2313 11.4743C16.2188 11.3504 16.2501 11.3177 16.3688 11.3177C17.7813 11.2786 19.0251 11.7353 20.1251 12.6815Z" fill="white"/>
<path fill-rule="evenodd" clip-rule="evenodd" d="M18.7313 16.7008C18.5813 15.5524 17.7376 14.7563 16.6501 14.7433C16.5501 14.7433 16.5063 14.7302 16.4938 14.6128C16.4688 14.2604 16.4376 13.9081 16.4063 13.5623C16.3938 13.4513 16.4126 13.4252 16.5188 13.4187C18.1563 13.3013 19.8251 14.7694 19.9938 16.4789C20.0063 16.5833 19.9688 16.5964 19.8876 16.6029C19.5063 16.629 19.1251 16.6616 18.7313 16.7008Z" fill="white"/>
</g>
<defs>
<clipPath id="clip0">
<rect width="32" height="33.408" fill="white" transform="translate(0 0.903809)"/>
</clipPath>
</defs>
</svg>
