<svg width="32" height="35" viewBox="0 0 32 35" fill="none" xmlns="http://www.w3.org/2000/svg">
<g clip-path="url(#clip0)">
<path d="M32 26.8146C32 30.958 28.7812 34.3118 24.8188 34.3118H7.18125C3.21875 34.3118 0 30.9514 0 26.8146V8.40103C0 4.26418 3.21875 0.903809 7.18125 0.903809H24.8188C28.7812 0.903809 32 4.26418 32 8.40103V26.8146Z" fill="#4F76BB"/>
<path fill-rule="evenodd" clip-rule="evenodd" d="M18.6875 11.6507C19.225 11.6312 19.7625 11.6442 20.3 11.6442C20.3625 11.6442 20.4313 11.6442 20.5188 11.6442V8.72754C20.2313 8.69492 19.9313 8.65577 19.6313 8.64272C19.0813 8.61662 18.5313 8.59052 17.975 8.60357C17.1313 8.62314 16.3375 8.83847 15.6438 9.35394C14.8438 9.95424 14.4063 10.796 14.2438 11.7878C14.175 12.1988 14.1563 12.623 14.1438 13.0406C14.1313 13.6931 14.1438 14.3456 14.1438 15.0046V15.2525H11.475V18.5085H14.1313V26.6909H17.375V18.515H20.025C20.1625 17.4319 20.2938 16.3618 20.4313 15.246C20.2188 15.246 20.025 15.246 19.8375 15.246C19.0813 15.2525 17.3563 15.246 17.3563 15.246C17.3563 15.246 17.3625 13.6343 17.3813 12.9296C17.4063 11.9705 17.9563 11.6768 18.6875 11.6507Z" fill="white"/>
</g>
<defs>
<clipPath id="clip0">
<rect width="32" height="33.408" fill="white" transform="translate(0 0.903809)"/>
</clipPath>
</defs>
</svg>
