<svg width="32" height="35" viewBox="0 0 32 35" fill="none" xmlns="http://www.w3.org/2000/svg">
<g clip-path="url(#clip0)">
<path d="M32 26.8146C32 30.958 28.7812 34.3118 24.8188 34.3118H7.18125C3.21875 34.3118 0 30.9514 0 26.8146V8.40103C0 4.26418 3.21875 0.903809 7.18125 0.903809H24.8188C28.7812 0.903809 32 4.26418 32 8.40103V26.8146Z" fill="#5EBEE1"/>
<path d="M23.9438 9.65407L7.26878 16.4335C6.73128 16.6554 6.76253 17.4645 7.31878 17.6341L11.5563 18.9391L13.1375 24.1787C13.3 24.7268 13.9688 24.8899 14.35 24.4789L16.5438 22.1429L20.8438 25.438C21.3688 25.8426 22.1188 25.5424 22.25 24.8769L25.0938 10.6654C25.2375 9.9738 24.5813 9.39307 23.9438 9.65407ZM21.8563 12.8056L14.1125 19.957C14.0375 20.0288 13.9875 20.1267 13.975 20.2311L13.675 22.9977C13.6625 23.089 13.5438 23.1021 13.5188 23.0107L12.2938 18.8804C12.2375 18.6912 12.3125 18.4889 12.475 18.3845L21.6188 12.4598C21.825 12.3358 22.0438 12.636 21.8563 12.8056Z" fill="white"/>
</g>
<defs>
<clipPath id="clip0">
<rect width="32" height="33.408" fill="white" transform="translate(0 0.903809)"/>
</clipPath>
</defs>
</svg>
