<svg width="32" height="35" viewBox="0 0 32 35" fill="none" xmlns="http://www.w3.org/2000/svg">
<g clip-path="url(#clip0)">
<path d="M32 26.8146C32 30.958 28.7812 34.3118 24.8188 34.3118H7.18125C3.21875 34.3118 0 30.9514 0 26.8146V8.40103C0 4.26418 3.21875 0.903809 7.18125 0.903809H24.8188C28.7812 0.903809 32 4.26418 32 8.40103V26.8146Z" fill="#EF3F38"/>
<path fill-rule="evenodd" clip-rule="evenodd" d="M8.88128 23.7806C8.20628 23.5457 7.75003 23.0824 7.50628 22.3842C6.91253 20.6747 6.73753 13.5233 7.88128 12.1139C8.27503 11.631 8.78128 11.3505 9.38128 11.2787C12.4688 10.9329 22.025 10.9785 23.125 11.3961C23.7688 11.6376 24.225 12.0813 24.475 12.7533C25.125 14.5216 25.15 20.9553 24.3875 22.6583C24.1813 23.1216 23.8438 23.4478 23.4188 23.6762C22.2688 24.3091 10.4 24.3026 8.88128 23.7806ZM13.7938 20.4267C15.65 19.4219 17.4938 18.4236 19.3625 17.4122C17.4938 16.3943 15.65 15.3894 13.7938 14.3781C13.7938 16.4008 13.7938 18.404 13.7938 20.4267Z" fill="white"/>
</g>
<defs>
<clipPath id="clip0">
<rect width="32" height="33.408" fill="white" transform="translate(0 0.903809)"/>
</clipPath>
</defs>
</svg>
