<svg width="32" height="35" viewBox="0 0 32 35" fill="none" xmlns="http://www.w3.org/2000/svg">
<g clip-path="url(#clip0)">
<path d="M32 26.6841C32 30.8992 28.7313 34.3118 24.6938 34.3118H7.30625C3.26875 34.3118 0 30.8992 0 26.6841V8.53806C0 4.32291 3.275 0.903809 7.3125 0.903809H24.5812C28.6812 0.903809 32 4.36858 32 8.64898V26.6841Z" fill="url(#paint0_radial)"/>
<path d="M20.45 5.51025H11.55C7.60625 5.51025 4.40625 8.85105 4.40625 12.9683V22.2534C4.40625 26.3707 7.6 29.705 11.55 29.705H20.4438C24.3875 29.705 27.5812 26.3707 27.5812 22.2534V12.9683C27.5875 8.84453 24.3938 5.51025 20.45 5.51025ZM25.3625 21.3595C25.3625 24.6872 22.7812 27.3821 19.5938 27.3821H12.4062C9.21875 27.3821 6.6375 24.6872 6.6375 21.3595V13.8557C6.6375 10.528 9.21875 7.83315 12.4062 7.83315H19.5938C22.7812 7.83315 25.3625 10.5345 25.3625 13.8557V21.3595Z" fill="white"/>
<path d="M16.3125 11.2783C12.9375 11.2783 10.2062 14.1297 10.2062 17.6532C10.2062 21.1702 12.9375 24.0282 16.3125 24.0282C19.6812 24.0282 22.4187 21.1767 22.4187 17.6532C22.4125 14.1297 19.6812 11.2783 16.3125 11.2783ZM16.3125 21.4834C14.2812 21.4834 12.6375 19.7673 12.6375 17.6467C12.6375 15.5261 14.2812 13.81 16.3125 13.81C18.3375 13.81 19.9875 15.5261 19.9875 17.6467C19.9812 19.7673 18.3375 21.4834 16.3125 21.4834Z" fill="white"/>
<path d="M23.5438 11.1804C23.5438 12.0743 22.85 12.7986 21.9938 12.7986C21.1375 12.7986 20.4438 12.0743 20.4438 11.1804C20.4438 10.2865 21.1375 9.55566 21.9938 9.55566C22.85 9.55566 23.5438 10.2799 23.5438 11.1804Z" fill="white"/>
</g>
<defs>
<radialGradient id="paint0_radial" cx="0" cy="0" r="1" gradientUnits="userSpaceOnUse" gradientTransform="translate(9.37303 36.8983) scale(42.4048 44.2693)">
<stop offset="0.0969388" stop-color="#FFD87A"/>
<stop offset="0.1426" stop-color="#FCCE78"/>
<stop offset="0.2263" stop-color="#F5B471"/>
<stop offset="0.3378" stop-color="#EB8D65"/>
<stop offset="0.449" stop-color="#E36058"/>
<stop offset="0.6786" stop-color="#CD3694"/>
<stop offset="1" stop-color="#6668B0"/>
</radialGradient>
<clipPath id="clip0">
<rect width="32" height="33.408" fill="white" transform="translate(0 0.903809)"/>
</clipPath>
</defs>
</svg>
