<svg width="31" height="33" viewBox="0 0 31 33" fill="none" xmlns="http://www.w3.org/2000/svg">
<path d="M15.5 0.395996C6.939 0.395996 0 7.64031 0 16.578C0 25.5157 6.939 32.76 15.5 32.76C24.061 32.76 31 25.5157 31 16.578C31 7.64031 24.061 0.395996 15.5 0.395996ZM28.975 16.056H22.979C22.924 13.7435 22.53 11.5344 21.831 9.5122C23.181 8.92443 24.429 8.14248 25.567 7.21854C27.59 9.58946 28.855 12.6682 28.975 16.056ZM14.947 30.6428C13.285 29.1979 11.891 27.3218 10.871 25.143C12.18 24.716 13.567 24.4821 15 24.4341V30.6448C14.982 30.6448 14.965 30.6438 14.947 30.6428ZM16.051 2.51323C17.937 4.15231 19.476 6.34784 20.517 8.90877C19.091 9.4172 17.576 9.71265 15.999 9.76485V2.5101C16.018 2.51114 16.034 2.51218 16.051 2.51323ZM17.717 2.69071C20.477 3.1699 22.953 4.51562 24.881 6.46372C23.834 7.30206 22.69 8.01198 21.453 8.54963C20.543 6.29773 19.266 4.30682 17.717 2.69071ZM15 2.5101V9.76485C13.423 9.71161 11.907 9.4172 10.482 8.90877C11.523 6.34784 13.062 4.15231 14.948 2.51323C14.966 2.51218 14.982 2.51114 15 2.5101ZM9.546 8.55068C8.311 8.01302 7.166 7.3031 6.119 6.46477C8.046 4.51666 10.523 3.17095 13.283 2.69175C11.733 4.30682 10.457 6.29773 9.546 8.55068ZM10.105 9.87134C11.647 10.4299 13.29 10.7556 15 10.8099V16.056H9.021C9.075 13.8699 9.446 11.7808 10.105 9.87134ZM15 17.1V23.3901C13.423 23.4402 11.898 23.7096 10.461 24.1929C9.595 22.0402 9.084 19.6421 9.021 17.1H15ZM13.283 30.4653C10.81 30.0362 8.564 28.9118 6.738 27.279C7.723 26.5659 8.788 25.9625 9.926 25.5042C10.798 27.3917 11.939 29.0674 13.283 30.4653ZM16 30.6459V24.4351C17.432 24.4832 18.82 24.717 20.129 25.144C19.108 27.3228 17.715 29.1989 16.053 30.6438C16.036 30.6438 16.018 30.6448 16 30.6459ZM21.074 25.5042C22.211 25.9625 23.275 26.567 24.262 27.279C22.436 28.9108 20.19 30.0362 17.717 30.4653C19.061 29.0674 20.201 27.3917 21.074 25.5042ZM20.539 24.1929C19.101 23.7096 17.576 23.4402 16 23.3901V17.1H21.979C21.916 19.6421 21.404 22.0402 20.539 24.1929ZM16 16.056V10.8099C17.709 10.7556 19.352 10.4309 20.895 9.87238C21.553 11.7819 21.924 13.8709 21.979 16.057H16V16.056ZM5.434 7.21854C6.572 8.14248 7.82 8.92443 9.169 9.5122C8.47 11.5344 8.076 13.7435 8.021 16.056H2.025C2.145 12.6682 3.41 9.58946 5.434 7.21854ZM2.025 17.1H8.021C8.083 19.7674 8.617 22.2866 9.524 24.551C8.257 25.0668 7.076 25.7537 5.986 26.567C3.638 24.1272 2.156 20.7916 2.025 17.1ZM25.014 26.5659C23.924 25.7537 22.743 25.0657 21.475 24.55C22.383 22.2855 22.916 19.7664 22.979 17.0989H28.975C28.844 20.7916 27.361 24.1272 25.014 26.5659Z" fill="white"/>
</svg>
