<svg width="29" height="57" viewBox="0 0 29 57" fill="none" xmlns="http://www.w3.org/2000/svg">
<mask id="path-1-inside-1" fill="white">
<path fill-rule="evenodd" clip-rule="evenodd" d="M3.05176e-05 0L28.2843 28.2843L3.05176e-05 56.5685V0Z"/>
</mask>
<path fill-rule="evenodd" clip-rule="evenodd" d="M3.05176e-05 0L28.2843 28.2843L3.05176e-05 56.5685V0Z" fill="white"/>
<path d="M28.2843 28.2843L32.5269 24.0416L36.7696 28.2843L32.5269 32.5269L28.2843 28.2843ZM3.05176e-05 0H-5.99997V-14.4853L4.24267 -4.24264L3.05176e-05 0ZM3.05176e-05 56.5685L4.24267 60.8112L-5.99997 71.0538V56.5685H3.05176e-05ZM24.0417 32.5269L-4.24261 4.24264L4.24267 -4.24264L32.5269 24.0416L24.0417 32.5269ZM-4.24261 52.3259L24.0417 24.0416L32.5269 32.5269L4.24267 60.8112L-4.24261 52.3259ZM-5.99997 56.5685V0H6.00003V56.5685H-5.99997Z" fill="black" mask="url(#path-1-inside-1)"/>
</svg>
