<svg width="25" height="22" viewBox="0 0 25 22" fill="none" xmlns="http://www.w3.org/2000/svg">
<path d="M8.10807 4.09063H24.4087L21.5371 14.4543H7.60131L3.71617 0.545177H0.506714" stroke="black" stroke-linecap="round" stroke-linejoin="round"/>
<path d="M9.37497 21.3635C10.3545 21.3635 11.1486 20.5088 11.1486 19.4544C11.1486 18.4001 10.3545 17.5454 9.37497 17.5454C8.39541 17.5454 7.60132 18.4001 7.60132 19.4544C7.60132 20.5088 8.39541 21.3635 9.37497 21.3635Z" stroke="black"/>
<path d="M19.0034 21.3635C19.9829 21.3635 20.777 20.5088 20.777 19.4544C20.777 18.4001 19.9829 17.5454 19.0034 17.5454C18.0238 17.5454 17.2297 18.4001 17.2297 19.4544C17.2297 20.5088 18.0238 21.3635 19.0034 21.3635Z" stroke="black"/>
</svg>
