<svg width="235" height="51" viewBox="0 0 235 51" fill="none" xmlns="http://www.w3.org/2000/svg">
<path d="M30.924 23.6802C34.524 24.3042 36.324 26.3442 36.324 29.8002C36.324 32.1522 35.532 33.9042 33.948 35.0562C32.364 36.2082 30.18 36.7842 27.396 36.7842H21.06V12.0162H26.424C29.28 12.0162 31.476 12.5442 33.012 13.6002C34.548 14.6562 35.316 16.2042 35.316 18.2442C35.316 19.7082 34.908 20.9082 34.092 21.8442C33.3 22.7562 32.244 23.3682 30.924 23.6802ZM24.408 14.5722V22.5642H27.504C28.896 22.5642 29.976 22.2162 30.744 21.5202C31.536 20.8002 31.932 19.8042 31.932 18.5322C31.932 17.1402 31.5 16.1322 30.636 15.5082C29.796 14.8842 28.5 14.5722 26.748 14.5722H24.408ZM27.432 34.1562C29.184 34.1562 30.528 33.8202 31.464 33.1482C32.4 32.4522 32.868 31.3122 32.868 29.7282C32.868 26.6082 31.176 25.0482 27.792 25.0482H24.408V34.1562H27.432ZM45.8955 12.0162V33.9402H54.9315L54.5715 36.7842H42.5475V12.0162H45.8955ZM74.9438 29.5122C74.9438 31.7922 74.2598 33.6522 72.8918 35.0922C71.5238 36.5322 69.5678 37.2522 67.0238 37.2522C64.4558 37.2522 62.4998 36.5442 61.1558 35.1282C59.8118 33.6882 59.1398 31.8162 59.1398 29.5122V12.0162H62.4878V29.2962C62.4878 32.7762 63.9998 34.5162 67.0238 34.5162C70.0478 34.5162 71.5598 32.7762 71.5598 29.2962V12.0162H74.9438V29.5122ZM94.7759 12.0162L94.3799 14.6082H85.8119V22.7802H93.2639V25.3722H85.8119V34.1562H94.8839V36.7842H82.4639V12.0162H94.7759ZM119.62 11.5482C120.916 11.5482 122.044 11.7522 123.004 12.1602C123.964 12.5442 124.912 13.1562 125.848 13.9962L124.12 16.0122C123.424 15.4122 122.728 14.9682 122.032 14.6802C121.36 14.3922 120.616 14.2482 119.8 14.2482C117.928 14.2482 116.44 15.0522 115.336 16.6602C114.232 18.2442 113.68 20.8122 113.68 24.3642C113.68 27.8202 114.232 30.3762 115.336 32.0322C116.44 33.6642 117.928 34.4802 119.8 34.4802C120.736 34.4802 121.54 34.3122 122.212 33.9762C122.884 33.6402 123.616 33.1482 124.408 32.5002L126.1 34.4802C124.3 36.3282 122.14 37.2522 119.62 37.2522C117.772 37.2522 116.128 36.7722 114.688 35.8122C113.272 34.8522 112.156 33.4122 111.34 31.4922C110.548 29.5482 110.152 27.1722 110.152 24.3642C110.152 21.5802 110.56 19.2282 111.376 17.3082C112.216 15.3882 113.344 13.9482 114.76 12.9882C116.2 12.0282 117.82 11.5482 119.62 11.5482ZM143.661 36.7842L142.005 30.4842H133.689L132.033 36.7842H128.685L135.849 12.0162H139.953L147.117 36.7842H143.661ZM134.373 27.8562H141.321L137.865 14.6802L134.373 27.8562ZM152.242 36.7842V12.0162H164.266L163.906 14.6082H155.59V23.2482H162.79V25.8402H155.59V36.7842H152.242ZM182.139 12.0162L181.743 14.6082H173.175V22.7802H180.627V25.3722H173.175V34.1562H182.247V36.7842H169.827V12.0162H182.139Z" fill="white"/>
<path fill-rule="evenodd" clip-rule="evenodd" d="M205.977 12.0039C199.362 12.0039 194 18.1723 194 25.7764C194 33.3856 199.362 39.5541 205.977 39.5541C212.587 39.5541 217.95 33.3856 217.95 25.7764C217.95 18.1723 212.587 12.0039 205.977 12.0039ZM205.721 18.9296C207.166 17.1469 207.362 15.9321 206.882 13.0241C208.08 14.5228 208.441 17.7569 207.065 19.4134C205.835 20.8911 205.333 22.2057 205.721 25.3557C204.642 23.6834 204.085 20.9489 205.721 18.9296ZM203.563 19.0768C204.569 17.841 204.706 16.9944 204.373 14.9751C205.2 16.0163 205.451 18.2617 204.496 19.4134C203.646 20.4388 203.294 21.3486 203.563 23.5362C202.818 22.374 202.43 20.4756 203.563 19.0768ZM208.194 19.0768C209.195 17.841 209.333 16.9944 209.003 14.9751C209.831 16.0163 210.082 18.2617 209.127 19.4134C208.272 20.4388 207.925 21.3486 208.194 23.5362C207.449 22.374 207.061 20.4756 208.194 19.0768ZM202.567 31.8449C202.105 31.8869 201.886 31.8554 201.497 31.6766C201.113 31.503 200.738 31.1402 200.363 30.4355C200.254 30.2304 200.167 29.8781 200.139 29.4732C200.121 29.1524 200.144 28.8106 200.24 28.5056C200.327 28.2269 200.478 27.9797 200.711 27.8115C200.88 27.6905 201.099 27.6116 201.383 27.5959C201.502 29.226 201.936 30.6985 202.567 31.8449ZM203.024 32.539C203.349 32.986 203.714 33.3594 204.107 33.6486C202.864 33.575 201.744 33.6065 200.363 33.454C200.103 33.4225 200.025 33.6486 200.231 33.7643C201.168 34.2849 202.215 34.7003 203.266 34.6898H208.715C209.767 34.7003 210.818 34.2849 211.755 33.7643C211.961 33.6486 211.883 33.4225 211.623 33.454C210.242 33.6065 209.118 33.575 207.906 33.6591C209.557 32.4969 210.709 29.8413 210.709 26.7492C210.709 26.6335 210.704 26.5178 210.704 26.4074L201.365 26.4021C201.36 26.5178 201.36 26.6335 201.36 26.7492V26.8281C200.971 26.8596 200.624 26.9753 200.363 27.1594C199.989 27.4223 199.751 27.8115 199.614 28.2479C199.486 28.6634 199.449 29.1156 199.477 29.531C199.509 30.0517 199.637 30.5354 199.797 30.8352C200.258 31.7029 200.743 32.1604 201.25 32.3918C201.762 32.6231 202.462 32.5916 203.001 32.5495" fill="white"/>
<rect x="1.5" y="2.02002" width="232" height="47.112" stroke="white" stroke-width="3"/>
</svg>
