<svg width="235" height="48" viewBox="0 0 235 48" fill="none" xmlns="http://www.w3.org/2000/svg">
<path d="M30.924 22.896C34.524 23.52 36.324 25.56 36.324 29.016C36.324 31.368 35.532 33.12 33.948 34.272C32.364 35.424 30.18 36 27.396 36H21.06V11.232H26.424C29.28 11.232 31.476 11.76 33.012 12.816C34.548 13.872 35.316 15.42 35.316 17.46C35.316 18.924 34.908 20.124 34.092 21.06C33.3 21.972 32.244 22.584 30.924 22.896ZM24.408 13.788V21.78H27.504C28.896 21.78 29.976 21.432 30.744 20.736C31.536 20.016 31.932 19.02 31.932 17.748C31.932 16.356 31.5 15.348 30.636 14.724C29.796 14.1 28.5 13.788 26.748 13.788H24.408ZM27.432 33.372C29.184 33.372 30.528 33.036 31.464 32.364C32.4 31.668 32.868 30.528 32.868 28.944C32.868 25.824 31.176 24.264 27.792 24.264H24.408V33.372H27.432ZM45.8955 11.232V33.156H54.9315L54.5715 36H42.5475V11.232H45.8955ZM74.9438 28.728C74.9438 31.008 74.2598 32.868 72.8918 34.308C71.5238 35.748 69.5678 36.468 67.0238 36.468C64.4558 36.468 62.4998 35.76 61.1558 34.344C59.8118 32.904 59.1398 31.032 59.1398 28.728V11.232H62.4878V28.512C62.4878 31.992 63.9998 33.732 67.0238 33.732C70.0478 33.732 71.5598 31.992 71.5598 28.512V11.232H74.9438V28.728ZM94.7759 11.232L94.3799 13.824H85.8119V21.996H93.2639V24.588H85.8119V33.372H94.8839V36H82.4639V11.232H94.7759ZM119.62 10.764C120.916 10.764 122.044 10.968 123.004 11.376C123.964 11.76 124.912 12.372 125.848 13.212L124.12 15.228C123.424 14.628 122.728 14.184 122.032 13.896C121.36 13.608 120.616 13.464 119.8 13.464C117.928 13.464 116.44 14.268 115.336 15.876C114.232 17.46 113.68 20.028 113.68 23.58C113.68 27.036 114.232 29.592 115.336 31.248C116.44 32.88 117.928 33.696 119.8 33.696C120.736 33.696 121.54 33.528 122.212 33.192C122.884 32.856 123.616 32.364 124.408 31.716L126.1 33.696C124.3 35.544 122.14 36.468 119.62 36.468C117.772 36.468 116.128 35.988 114.688 35.028C113.272 34.068 112.156 32.628 111.34 30.708C110.548 28.764 110.152 26.388 110.152 23.58C110.152 20.796 110.56 18.444 111.376 16.524C112.216 14.604 113.344 13.164 114.76 12.204C116.2 11.244 117.82 10.764 119.62 10.764ZM143.661 36L142.005 29.7H133.689L132.033 36H128.685L135.849 11.232H139.953L147.117 36H143.661ZM134.373 27.072H141.321L137.865 13.896L134.373 27.072ZM152.242 36V11.232H164.266L163.906 13.824H155.59V22.464H162.79V25.056H155.59V36H152.242ZM182.139 11.232L181.743 13.824H173.175V21.996H180.627V24.588H173.175V33.372H182.247V36H169.827V11.232H182.139Z" fill="#1C4F9A"/>
<path fill-rule="evenodd" clip-rule="evenodd" d="M205.977 11C199.362 11 194 16.9084 194 24.192C194 31.4806 199.362 37.389 205.977 37.389C212.587 37.389 217.95 31.4806 217.95 24.192C217.95 16.9084 212.587 11 205.977 11ZM205.721 17.6338C207.166 15.9262 207.362 14.7627 206.882 11.9772C208.08 13.4127 208.441 16.5105 207.065 18.0972C205.835 19.5126 205.333 20.7719 205.721 23.789C204.642 22.1873 204.085 19.568 205.721 17.6338ZM203.563 17.7748C204.569 16.5911 204.706 15.7801 204.373 13.8459C205.2 14.8433 205.451 16.9941 204.496 18.0972C203.646 19.0794 203.294 19.9508 203.563 22.0462C202.818 20.933 202.43 19.1147 203.563 17.7748ZM208.194 17.7748C209.195 16.5911 209.333 15.7801 209.003 13.8459C209.831 14.8433 210.082 16.9941 209.127 18.0972C208.272 19.0794 207.925 19.9508 208.194 22.0462C207.449 20.933 207.061 19.1147 208.194 17.7748ZM202.567 30.0047C202.105 30.045 201.886 30.0148 201.497 29.8436C201.113 29.6773 200.738 29.3298 200.363 28.6548C200.254 28.4584 200.167 28.1209 200.139 27.733C200.121 27.4258 200.144 27.0984 200.24 26.8062C200.327 26.5393 200.478 26.3025 200.711 26.1413C200.88 26.0255 201.099 25.9499 201.383 25.9348C201.502 27.4963 201.936 28.9067 202.567 30.0047ZM203.024 30.6696C203.349 31.0978 203.714 31.4554 204.107 31.7324C202.864 31.6619 201.744 31.6922 200.363 31.5461C200.103 31.5159 200.025 31.7324 200.231 31.8433C201.168 32.3419 202.215 32.7399 203.266 32.7298H208.715C209.767 32.7399 210.818 32.3419 211.755 31.8433C211.961 31.7324 211.883 31.5159 211.623 31.5461C210.242 31.6922 209.118 31.6619 207.906 31.7425C209.557 30.6293 210.709 28.0856 210.709 25.1239C210.709 25.013 210.704 24.9022 210.704 24.7964L201.365 24.7914C201.36 24.9022 201.36 25.013 201.36 25.1239V25.1994C200.971 25.2296 200.624 25.3404 200.363 25.5167C199.989 25.7686 199.751 26.1413 199.614 26.5594C199.486 26.9573 199.449 27.3905 199.477 27.7884C199.509 28.2871 199.637 28.7505 199.797 29.0376C200.258 29.8687 200.743 30.307 201.25 30.5286C201.762 30.7502 202.462 30.72 203.001 30.6797" fill="#1C4F9A"/>
<rect x="1.5" y="1.5" width="232" height="45" stroke="#1C4F9A" stroke-width="3"/>
</svg>
