<svg width="30" height="32" viewBox="0 0 30 32" fill="none" xmlns="http://www.w3.org/2000/svg">
<path d="M29.1631 28.3354C28.9735 28.2021 25.5561 25.811 20.4699 24.6376C22.3354 22.1153 23.5333 18.7261 24.0426 16.4684C24.7494 13.3395 24.4751 7.21939 21.6588 3.40533C20.0121 1.1767 17.709 0 14.9985 0C12.287 0 9.98387 1.17778 8.33922 3.40641C5.52284 7.21939 5.24957 13.3395 5.95543 16.4684C6.46466 18.725 7.66159 22.1153 9.52808 24.6376C4.44187 25.811 1.02349 28.2021 0.835937 28.3354C0.149237 28.8238 -0.158315 29.7369 0.0816765 30.577C0.319652 31.4224 1.04971 32 1.87557 32H28.1244C28.9503 32 29.6783 31.4224 29.9183 30.5791C30.1573 29.7348 29.8498 28.8227 29.1631 28.3354ZM7.6505 10.7473C8.16174 6.46862 10.4598 1.99953 14.9975 1.99953C19.5351 1.99953 21.8332 6.4697 22.3455 10.7484C22.9011 15.2035 21.6104 19.8662 18.9977 23.3974L18.6921 23.8126C16.4556 26.5521 13.5404 26.5521 11.3058 23.8126L10.9993 23.3974C8.38863 19.8694 7.09287 15.2003 7.6505 10.7473ZM1.87254 29.9994C2.00161 29.9069 5.17798 27.6869 9.92135 26.5919L12.2497 26.0563C13.0816 26.6382 13.9931 27.0017 14.9965 27.0017C16.0008 27.0017 16.9104 26.6382 17.7433 26.0563L20.0726 26.5919C24.7787 27.6783 27.9439 29.8757 28.1204 29.9994H1.87254Z" fill="#090509"/>
</svg>
